<svg width="40" height="29" viewBox="0 0 40 29" fill="none" xmlns="http://www.w3.org/2000/svg">
<path d="M40 25.0467C40 25.4206 39.6262 25.7944 39.6262 26.1682C38.8785 27.2897 38.1308 28.0374 36.6355 28.0374H36.2617C25.4206 28.0374 14.5794 28.0374 3.73832 28.0374C1.86916 28.0374 0.373832 26.9159 0 25.4206C0 25.0467 0 24.6729 0 24.2991C0 17.5701 0 10.4673 0 3.73832C0 1.49533 1.49533 0 3.73832 0C14.5794 0 25.4206 0 36.2617 0C38.1308 0 39.2523 1.1215 40 2.99065V25.0467ZM4.11215 2.24299C4.11215 2.61682 4.11215 2.61682 4.11215 2.24299C9.34579 7.47664 13.8318 12.3364 18.6916 17.1963C19.4393 17.9439 20.1869 17.9439 20.9346 17.1963C25.7944 12.3364 30.6542 7.47664 35.514 2.61682C35.514 2.61682 35.514 2.61682 35.8879 2.24299H4.11215ZM4.11215 25.7944H35.8879C32.5234 22.4299 29.1589 19.0654 25.7944 15.7009C25.7944 15.7009 25.7944 15.7009 25.4206 16.0748C24.6729 16.8224 23.5514 17.9439 22.4299 19.0654C20.9346 20.5607 18.6916 20.5607 17.1963 19.0654C16.8224 18.3178 16.0748 17.5701 15.7009 17.1963C14.9533 16.8224 14.5794 16.0748 14.2056 15.7009C10.8411 19.0654 7.47664 22.4299 4.11215 25.7944ZM2.24299 4.11215V23.9252C5.60748 20.5607 8.97196 17.1963 12.3364 13.8318C8.97196 10.8411 5.60748 7.47664 2.24299 4.11215ZM37.3832 4.11215C34.3925 7.47664 31.028 10.8411 27.6636 14.2056C31.028 17.1963 34.3925 20.5607 37.3832 23.9252V4.11215Z" fill="currentColor"/>
</svg>
