<svg width="36" height="41" viewBox="0 0 36 41" fill="none" xmlns="http://www.w3.org/2000/svg">
<path d="M18.4313 0.0375977C19.2156 0.0375977 20.3921 0.429755 21.1764 0.429755C23.9215 1.21407 25.8823 2.7827 27.8431 4.74348C29.0195 6.31211 29.8038 7.88073 30.196 9.84152C30.9803 13.3709 30.5882 16.5082 28.6274 19.6454C27.4509 21.9984 25.8823 23.9592 24.7058 26.3121C24.7058 26.3121 24.7058 26.7043 24.3136 26.7043C24.7058 26.7043 25.098 26.7043 25.4901 27.0964C27.8431 27.4886 29.8038 28.2729 31.7646 29.0572C32.9411 29.4494 34.1176 30.2337 34.9019 31.4101C35.6862 32.5866 35.294 34.1552 34.5097 35.3317C33.7254 36.116 32.9411 36.9003 31.7646 37.6847C29.4117 38.469 27.0587 39.2533 24.7058 39.6454C20.7842 40.4298 16.8627 40.4298 12.9411 40.0376C9.80384 39.6454 7.05874 39.2533 4.31364 38.0768C3.13717 37.2925 1.9607 36.5082 0.784232 35.7239C-0.784396 34.1552 -0.392239 32.1945 1.17639 30.6258C2.35286 29.4494 3.52933 29.0572 4.7058 28.2729C6.66658 27.4886 8.62737 27.0964 10.5882 26.7043C10.5882 26.7043 10.5882 26.7043 10.9803 26.7043C10.9803 26.7043 10.9803 26.3121 10.5882 26.3121C9.41168 23.9592 7.84306 21.9984 6.66658 20.0376C5.09796 17.2925 4.31364 14.1552 4.7058 11.018C5.49011 6.31211 8.23521 3.17485 12.5489 1.21407C13.7254 0.429755 15.294 0.0375977 16.4705 0.0375977H16.8627H18.4313ZM17.647 32.5866C17.647 32.5866 17.647 32.1945 18.0391 32.1945C20.7842 27.8807 23.5293 23.1749 26.2744 18.8611C27.8431 16.116 28.6274 13.3709 27.8431 10.2337C26.2744 4.74348 21.1764 1.60623 15.6862 2.7827C12.9411 3.17485 10.5882 4.74348 9.01953 6.70426C6.66658 10.2337 6.27443 14.9396 8.62737 18.469C10.5882 21.2141 12.5489 24.3513 14.1176 27.0964C15.294 29.0572 16.4705 31.018 17.647 32.5866ZM17.647 37.6847C18.4313 37.6847 19.2156 37.6847 19.9999 37.6847C22.745 37.6847 25.8823 37.2925 28.6274 36.116C29.8038 35.7239 30.9803 35.3317 32.1568 34.5474C32.9411 33.7631 33.3332 32.9788 32.1568 32.1945C31.7646 31.4101 30.9803 31.018 30.196 30.6258C28.2352 29.8415 26.2744 29.4494 23.9215 29.0572C23.1372 29.0572 22.3529 29.0572 22.3529 29.8415C21.1764 31.8023 19.9999 33.3709 18.8234 35.3317C18.4313 35.7239 18.0391 36.116 17.2548 36.116C16.8627 36.116 16.8627 35.7239 16.4705 35.3317C15.294 33.3709 13.7254 31.018 12.5489 29.0572C12.5489 28.665 12.1568 28.665 12.1568 28.665C11.7646 28.665 10.9803 28.665 10.5882 29.0572C8.62737 29.4494 6.66658 29.8415 4.7058 31.018C3.92149 31.4101 3.13717 31.8023 2.74502 32.1945C2.35286 32.5866 2.35286 33.3709 2.74502 34.1552C3.13717 34.5474 3.13717 34.5474 3.52933 34.9396C4.7058 35.7239 6.27443 36.116 7.4509 36.9003C10.9803 37.6847 14.1176 37.6847 17.647 37.6847Z" fill="currentColor"/>
<path d="M17.647 7.09619C20.7843 7.09619 23.5294 9.84129 23.5294 12.9785C23.5294 16.1158 20.7843 18.8609 17.647 18.8609C14.5097 18.8609 11.7646 16.1158 11.7646 12.9785C11.7646 9.84129 14.5097 7.09619 17.647 7.09619ZM21.1764 12.9785C21.1764 11.0178 19.6078 9.44913 17.647 9.44913C15.6862 9.44913 14.1176 11.0178 14.1176 12.9785C14.1176 14.9393 15.6862 16.508 17.647 16.508C19.6078 16.508 21.1764 14.9393 21.1764 12.9785Z" fill="currentColor"/>
</svg>
