<svg width="40" height="41" viewBox="0 0 40 41" fill="none" xmlns="http://www.w3.org/2000/svg">
<path d="M4.16274 6.47221L4.16219 6.47139L4.15512 6.47846L4.1532 6.48038C3.77403 6.85955 3.01135 7.62222 2.62559 8.38895C1.48167 9.5354 0.718966 11.0597 0.33579 12.5836C-0.0500041 12.9759 -0.050002 13.3716 -0.05 13.7493L-0.05 13.7519V15.2757V15.2779V15.2802V15.2824V15.2846V15.2868V15.289V15.2911V15.2933V15.2955V15.2976V15.2997V15.3019V15.304V15.3061V15.3082V15.3103V15.3124V15.3145V15.3166V15.3186V15.3207V15.3227V15.3248V15.3268V15.3288V15.3309V15.3329V15.3349V15.3369V15.3388V15.3408V15.3428V15.3447V15.3467V15.3486V15.3506V15.3525V15.3544V15.3563V15.3582V15.3601V15.362V15.3639V15.3657V15.3676V15.3694V15.3713V15.3731V15.375V15.3768V15.3786V15.3804V15.3822V15.384V15.3858V15.3875V15.3893V15.3911V15.3928V15.3946V15.3963V15.398V15.3997V15.4015V15.4032V15.4049V15.4066V15.4082V15.4099V15.4116V15.4132V15.4149V15.4165V15.4182V15.4198V15.4214V15.423V15.4246V15.4262V15.4278V15.4294V15.431V15.4326V15.4341V15.4357V15.4372V15.4388V15.4403V15.4418V15.4434V15.4449V15.4464V15.4479V15.4494V15.4509V15.4523V15.4538V15.4553V15.4567V15.4582V15.4596V15.461V15.4625V15.4639V15.4653V15.4667V15.4681V15.4695V15.4709V15.4723V15.4737V15.475V15.4764V15.4777V15.4791V15.4804V15.4817V15.4831V15.4844V15.4857V15.487V15.4883V15.4896V15.4909V15.4922V15.4934V15.4947V15.496V15.4972V15.4985V15.4997V15.5009V15.5022V15.5034V15.5046V15.5058V15.507V15.5082V15.5094V15.5106V15.5117V15.5129V15.5141V15.5152V15.5164V15.5175V15.5187V15.5198V15.5209V15.522V15.5231V15.5242V15.5253V15.5264V15.5275V15.5286V15.5297V15.5308V15.5318V15.5329V15.5339V15.535V15.536V15.5371V15.5381V15.5391V15.5401V15.5411V15.5421V15.5431V15.5441V15.5451V15.5461V15.5471V15.548V15.549V15.55V15.5509V15.5519V15.5528V15.5537V15.5547V15.5556V15.5565V15.5574V15.5583V15.5592V15.5601V15.561V15.5619V15.5628V15.5637V15.5645V15.5654V15.5663V15.5671V15.568V15.5688V15.5696V15.5705V15.5713V15.5721V15.5729V15.5737V15.5745V15.5753V15.5761V15.5769V15.5777V15.5785V15.5793V15.58V15.5808V15.5816V15.5823V15.5831V15.5838V15.5845V15.5853V15.586V15.5867V15.5874V15.5882V15.5889V15.5896V15.5903V15.591V15.5917V15.5923V15.593V15.5937V15.5944V15.595V15.5957V15.5963V15.597V15.5976V15.5983V15.5989V15.5996V15.6002V15.6008V15.6014V15.602V15.6026V15.6032V15.6038V15.6044V15.605V15.6056V15.6062V15.6068V15.6074V15.6079V15.6085V15.609V15.6096V15.6102V15.6107V15.6112V15.6118V15.6123V15.6129V15.6134V15.6139V15.6144V15.6149V15.6154V15.6159V15.6164V15.6169V15.6174V15.6179V15.6184V15.6189V15.6194V15.6198V15.6203V15.6208V15.6212V15.6217V15.6221V15.6226V15.623V15.6235V15.6239V15.6243V15.6248V15.6252V15.6256V15.626V15.6264V15.6269V15.6273V15.6277V15.6281V15.6285V15.6289V15.6292V15.6296V15.63V15.6304V15.6308V15.6311V15.6315V15.6319V15.6322V15.6326V15.6329V15.6333V15.6336V15.634V15.6343V15.6346V15.635V15.6353V15.6356V15.6359V15.6363V15.6366V15.6369V15.6372V15.6375V15.6378V15.6381V15.6384V15.6387V15.639V15.6393V15.6396V15.6398V15.6401V15.6404V15.6407V15.6409V15.6412V15.6415V15.6417V15.642V15.6422V15.6425V15.6427V15.643V15.6432V15.6434V15.6437V15.6439V15.6441V15.6444V15.6446V15.6448V15.645V15.6453V15.6455V15.6457V15.6459V15.6461V15.6463V15.6465V15.6467V15.6469V15.6471V15.6473V15.6475V15.6477V15.6478V15.648V15.6482V15.6484V15.6485V15.6487V15.6489V15.649V15.6492V15.6494V15.6495V15.6497V15.6498V15.65V15.6501V15.6503V15.6504V15.6506V15.6507V15.6509V15.651V15.6511V15.6513V15.6514V15.6515V15.6516V15.6518V15.6519V15.652V15.6521V15.6522V15.6524V15.6525V15.6526V15.6527V15.6528V15.6529V15.653V15.6531V15.6532V15.6533V15.6534V15.6535V15.6536V15.6537V15.6537V15.6538V15.6539V15.654V15.6541V15.6542V15.6542V15.6543V15.6544V15.6545V15.6545V15.6546V15.6547V15.6547V15.6548V15.6549V15.6549V15.655V15.655V15.6551V15.6552V15.6552V15.6553V15.6553V15.6554V15.6554V15.6555V15.6555V15.6556V15.6556V15.6557V15.6557V15.6557V15.6558V15.6558V15.6559V15.6559V15.6559V15.656V15.656V15.656V15.6561V15.6561V15.6561V15.6561V15.6562V15.6562V15.6562V15.6562V15.6563V15.6563V15.6563V15.6563V15.6564V15.6564V15.6564V15.6564V15.6564V15.6564V15.6565V15.6565V15.6565V15.6565V15.6565V15.6565V15.6565V15.6565V15.6566V15.6566V15.6566V15.6566V15.6566V15.6566V15.6566V15.6566V15.6566V15.6566V15.6567V15.6567C-0.05 16.4299 0.334816 17.581 0.717183 18.3457C5.29328 27.4979 12.1579 34.3627 21.3099 38.939C24.7553 40.8526 28.9702 40.4715 31.6544 37.7873L33.5592 35.8825C34.136 35.3056 34.431 34.7222 34.431 34.1329C34.431 33.5435 34.136 32.9601 33.5592 32.3832C32.9248 31.7488 32.2909 31.0727 31.6563 30.3958C31.3387 30.057 31.0209 29.7181 30.7029 29.3841C29.751 28.3846 28.7974 27.4308 27.8429 26.667C27.2667 26.0914 26.6839 25.7971 26.0952 25.7971C25.5059 25.7971 24.9225 26.0921 24.3456 26.6689L22.0599 28.9546C21.685 29.3295 21.3139 29.5135 20.9462 29.5594C20.5788 29.6053 20.2089 29.5143 19.8347 29.3276C19.5268 29.1224 19.2474 28.9453 18.9886 28.7812C18.2833 28.3341 17.7318 27.9844 17.1782 27.4308C16.9823 27.2349 16.7798 27.1305 16.5714 27.1305C16.368 27.1305 16.1703 27.2299 15.9788 27.4169C15.8742 27.4237 15.795 27.4807 15.7431 27.565C15.6891 27.6528 15.6643 27.7701 15.6643 27.8948C15.6643 28.144 15.7634 28.4431 15.9646 28.6444L15.9704 28.6501L15.9776 28.6538C16.3565 28.8432 16.8308 29.1278 17.3076 29.4138L17.3091 29.4147C17.7825 29.6988 18.2583 29.9842 18.6403 30.1756C19.4068 30.7495 20.179 31.0409 20.9081 30.9923C21.639 30.9435 22.3173 30.5538 22.895 29.7847L24.0354 28.6444L25.1782 27.5015C25.3632 27.3165 25.5417 27.2305 25.7143 27.2305C25.8868 27.2305 26.0653 27.3165 26.2504 27.5015L26.2502 27.5017L26.2537 27.5046C27.7915 28.7861 29.1547 30.2383 30.4642 31.6332C31.0994 32.3099 31.7219 32.9731 32.3456 33.5968C32.5306 33.7818 32.6167 33.9603 32.6167 34.1329C32.6167 34.3054 32.5306 34.4839 32.3456 34.6689L31.3932 35.6213L30.4424 36.5721C28.168 38.4664 24.7631 39.2188 22.12 37.7085L22.1201 37.7084L22.1176 37.7072C19.0743 36.1855 16.4109 34.2833 13.744 32.3784C8.79915 28.5744 4.99481 23.6291 2.33136 17.922C1.19374 15.267 1.19704 12.2412 3.08603 9.97439L3.08625 9.97457L3.08922 9.97012C3.46702 9.40342 3.84464 9.02572 4.2234 8.6943C4.34852 8.58482 4.47457 8.47976 4.60113 8.37429C4.85614 8.16175 5.11319 7.94752 5.36869 7.69202C5.55372 7.507 5.73222 7.42095 5.90476 7.42095C6.0773 7.42095 6.25581 7.507 6.44083 7.69202C7.06451 8.3157 7.7277 8.93825 8.40438 9.57346C9.79932 10.8829 11.2516 12.2462 12.533 13.7839L12.5329 13.784L12.5361 13.7873C12.7211 13.9723 12.8071 14.1508 12.8071 14.3233C12.8071 14.4959 12.7211 14.6744 12.5361 14.8594L9.86941 17.5261C8.70805 18.6874 8.70841 20.238 9.48221 21.3987L9.48138 21.3992L9.48845 21.4063C9.58119 21.499 9.67469 21.6158 9.77591 21.7468C9.79707 21.7741 9.81857 21.8021 9.84043 21.8306C9.92252 21.9376 10.0098 22.0513 10.1044 22.1649C10.3388 22.4461 10.6218 22.7309 10.998 22.9256C11.0029 23.1096 11.0519 23.2537 11.1329 23.3597C11.2186 23.4717 11.337 23.537 11.4664 23.5628C11.7229 23.6141 12.0251 23.5118 12.2258 23.3111C12.4218 23.1151 12.5262 22.9127 12.5262 22.7043C12.5262 22.4959 12.4218 22.2934 12.2258 22.0975C12.0396 21.9113 11.8521 21.6304 11.6607 21.3432L11.6584 21.3399C11.4696 21.0567 11.277 20.7677 11.083 20.5737C10.7129 20.2036 10.623 19.838 10.6687 19.4724C10.7145 19.1054 10.8971 18.7363 11.0864 18.3576C12.2272 17.5954 12.9896 16.833 13.7488 16.0738L13.7496 16.073C14.3265 15.4961 14.6214 14.9127 14.6214 14.3233C14.6214 13.734 14.3265 13.1506 13.7496 12.5737L7.6544 6.47846L7.6551 6.47776L7.64678 6.47221C7.06882 6.0869 6.48791 5.89238 5.90476 5.89238C5.32162 5.89238 4.7407 6.0869 4.16274 6.47221Z" fill="currentColor" stroke="currentColor" stroke-width="0.1"/>
<path d="M22.0952 1.18045L22.0599 1.21583L22.0599 1.21586L22.06 1.21595L22.0603 1.21623L22.0612 1.21718L22.0648 1.22066L22.0782 1.23338C22.0898 1.24422 22.1067 1.25958 22.1282 1.27794C22.1709 1.31462 22.2321 1.36354 22.3056 1.41253C22.4509 1.50943 22.6516 1.61141 22.8571 1.61141C24.7559 1.61141 26.6526 1.99126 28.1681 2.74899L28.168 2.74923L28.1729 2.75108C34.2468 5.02878 38.0457 10.7234 38.4262 17.5628C38.4266 17.7691 38.5294 17.971 38.6789 18.1206C38.8288 18.2704 39.0313 18.3733 39.2381 18.3733C39.659 18.3733 40.05 17.9557 40.05 17.1805C40.05 16.6041 39.9539 16.1238 39.8588 15.6483L39.8585 15.6468C39.7632 15.1704 39.669 14.6987 39.669 14.1328H39.6697L39.6683 14.1246C38.5228 7.25159 32.7998 1.52424 25.9285 0.371831C25.7267 0.177513 25.4328 0.0829347 25.1023 0.0357192C24.7654 -0.0124027 24.3816 -0.0124025 24.0023 -0.0124023H24H22.4762H22.4555L22.4408 0.00224232C22.0452 0.397843 22.0452 0.79695 22.0452 1.17786L22.0452 1.18045V1.20117L22.0599 1.21581L22.0952 1.18045Z" fill="currentColor" stroke="currentColor" stroke-width="0.1"/>
<path d="M35.4785 15.2756H35.479L35.4781 15.2689C34.713 9.5306 29.3592 4.55889 23.2381 4.55889H23.2358H23.2336H23.2314H23.2292H23.227H23.2248H23.2227H23.2205H23.2183H23.2162H23.214H23.2119H23.2098H23.2077H23.2056H23.2035H23.2014H23.1993H23.1972H23.1951H23.1931H23.191H23.189H23.187H23.1849H23.1829H23.1809H23.1789H23.1769H23.175H23.173H23.171H23.1691H23.1671H23.1652H23.1632H23.1613H23.1594H23.1575H23.1556H23.1537H23.1518H23.1499H23.1481H23.1462H23.1443H23.1425H23.1407H23.1388H23.137H23.1352H23.1334H23.1316H23.1298H23.128H23.1262H23.1245H23.1227H23.121H23.1192H23.1175H23.1158H23.114H23.1123H23.1106H23.1089H23.1072H23.1056H23.1039H23.1022H23.1005H23.0989H23.0973H23.0956H23.094H23.0924H23.0907H23.0891H23.0875H23.0859H23.0844H23.0828H23.0812H23.0797H23.0781H23.0765H23.075H23.0735H23.0719H23.0704H23.0689H23.0674H23.0659H23.0644H23.0629H23.0615H23.06H23.0585H23.0571H23.0556H23.0542H23.0527H23.0513H23.0499H23.0485H23.0471H23.0457H23.0443H23.0429H23.0415H23.0401H23.0388H23.0374H23.0361H23.0347H23.0334H23.032H23.0307H23.0294H23.0281H23.0268H23.0255H23.0242H23.0229H23.0216H23.0204H23.0191H23.0178H23.0166H23.0153H23.0141H23.0129H23.0116H23.0104H23.0092H23.008H23.0068H23.0056H23.0044H23.0032H23.0021H23.0009H22.9997H22.9986H22.9974H22.9963H22.9951H22.994H22.9929H22.9918H22.9906H22.9895H22.9884H22.9873H22.9863H22.9852H22.9841H22.983H22.982H22.9809H22.9799H22.9788H22.9778H22.9767H22.9757H22.9747H22.9737H22.9727H22.9717H22.9707H22.9697H22.9687H22.9677H22.9667H22.9657H22.9648H22.9638H22.9629H22.9619H22.961H22.96H22.9591H22.9582H22.9573H22.9564H22.9555H22.9546H22.9537H22.9528H22.9519H22.951H22.9501H22.9493H22.9484H22.9475H22.9467H22.9458H22.945H22.9442H22.9433H22.9425H22.9417H22.9409H22.94H22.9392H22.9384H22.9376H22.9369H22.9361H22.9353H22.9345H22.9338H22.933H22.9322H22.9315H22.9307H22.93H22.9292H22.9285H22.9278H22.9271H22.9263H22.9256H22.9249H22.9242H22.9235H22.9228H22.9221H22.9214H22.9208H22.9201H22.9194H22.9188H22.9181H22.9174H22.9168H22.9161H22.9155H22.9149H22.9142H22.9136H22.913H22.9124H22.9118H22.9111H22.9105H22.9099H22.9093H22.9088H22.9082H22.9076H22.907H22.9064H22.9059H22.9053H22.9047H22.9042H22.9036H22.9031H22.9025H22.902H22.9015H22.9009H22.9004H22.8999H22.8994H22.8989H22.8984H22.8978H22.8973H22.8968H22.8964H22.8959H22.8954H22.8949H22.8944H22.894H22.8935H22.893H22.8926H22.8921H22.8917H22.8912H22.8908H22.8903H22.8899H22.8894H22.889H22.8886H22.8882H22.8878H22.8873H22.8869H22.8865H22.8861H22.8857H22.8853H22.8849H22.8845H22.8842H22.8838H22.8834H22.883H22.8827H22.8823H22.8819H22.8816H22.8812H22.8809H22.8805H22.8802H22.8798H22.8795H22.8792H22.8788H22.8785H22.8782H22.8778H22.8775H22.8772H22.8769H22.8766H22.8763H22.876H22.8757H22.8754H22.8751H22.8748H22.8745H22.8742H22.8739H22.8737H22.8734H22.8731H22.8729H22.8726H22.8723H22.8721H22.8718H22.8716H22.8713H22.8711H22.8708H22.8706H22.8703H22.8701H22.8699H22.8696H22.8694H22.8692H22.869H22.8687H22.8685H22.8683H22.8681H22.8679H22.8677H22.8675H22.8673H22.8671H22.8669H22.8667H22.8665H22.8663H22.8661H22.866H22.8658H22.8656H22.8654H22.8652H22.8651H22.8649H22.8647H22.8646H22.8644H22.8643H22.8641H22.8639H22.8638H22.8636H22.8635H22.8634H22.8632H22.8631H22.8629H22.8628H22.8627H22.8625H22.8624H22.8623H22.8621H22.862H22.8619H22.8618H22.8617H22.8615H22.8614H22.8613H22.8612H22.8611H22.861H22.8609H22.8608H22.8607H22.8606H22.8605H22.8604H22.8603H22.8602H22.8601H22.86H22.86H22.8599H22.8598H22.8597H22.8596H22.8596H22.8595H22.8594H22.8593H22.8593H22.8592H22.8591H22.8591H22.859H22.8589H22.8589H22.8588H22.8587H22.8587H22.8586H22.8586H22.8585H22.8585H22.8584H22.8584H22.8583H22.8583H22.8582H22.8582H22.8581H22.8581H22.8581H22.858H22.858H22.8579H22.8579H22.8579H22.8578H22.8578H22.8578H22.8577H22.8577H22.8577H22.8576H22.8576H22.8576H22.8576H22.8575H22.8575H22.8575H22.8575H22.8575H22.8574H22.8574H22.8574H22.8574H22.8574H22.8573H22.8573H22.8573H22.8573H22.8573H22.8573H22.8573H22.8573H22.8572H22.8572H22.8572H22.8572H22.8572H22.8572H22.8572H22.8572H22.8572H22.8572H22.8572H22.8572H22.8572H22.8571H22.8571H22.8571H22.8571H22.8571H22.8571H22.8571H22.8571H22.8571H22.8571H22.8571H22.8571H22.8571H22.8571H22.8571H22.8571H22.8571C22.6504 4.55889 22.4478 4.66175 22.298 4.81163C22.1481 4.9615 22.0452 5.16405 22.0452 5.37079C22.0452 5.57753 22.1481 5.78008 22.298 5.92996C22.4478 6.07983 22.6504 6.1827 22.8571 6.1827H23.2319C23.7397 6.30932 24.2492 6.39424 24.7564 6.47878C25.0098 6.52103 25.2627 6.56319 25.5146 6.61041C26.2746 6.75291 27.0313 6.94234 27.7871 7.32027C31.5775 9.21546 33.4745 12.6258 33.8547 16.8016C33.8555 17.5754 34.2461 17.9922 34.6666 17.9922C35.0876 17.9922 35.4785 17.5746 35.4785 16.7994V16.7971V16.7949V16.7926V16.7904V16.7881V16.7858V16.7835V16.7812V16.7789V16.7766V16.7743V16.772V16.7696V16.7673V16.7649V16.7626V16.7602V16.7578V16.7554V16.753V16.7506V16.7482V16.7458V16.7434V16.7409V16.7385V16.736V16.7336V16.7311V16.7286V16.7261V16.7237V16.7212V16.7187V16.7161V16.7136V16.7111V16.7086V16.706V16.7035V16.7009V16.6983V16.6958V16.6932V16.6906V16.688V16.6854V16.6828V16.6802V16.6776V16.6749V16.6723V16.6697V16.667V16.6644V16.6617V16.659V16.6563V16.6537V16.651V16.6483V16.6456V16.6429V16.6401V16.6374V16.6347V16.6319V16.6292V16.6265V16.6237V16.6209V16.6182V16.6154V16.6126V16.6098V16.607V16.6042V16.6014V16.5986V16.5958V16.593V16.5901V16.5873V16.5845V16.5816V16.5788V16.5759V16.573V16.5702V16.5673V16.5644V16.5615V16.5586V16.5557V16.5528V16.5499V16.547V16.5441V16.5412V16.5382V16.5353V16.5324V16.5294V16.5265V16.5235V16.5205V16.5176V16.5146V16.5116V16.5086V16.5056V16.5027V16.4997V16.4967V16.4936V16.4906V16.4876V16.4846V16.4816V16.4785V16.4755V16.4725V16.4694V16.4664V16.4633V16.4603V16.4572V16.4541V16.4511V16.448V16.4449V16.4418V16.4387V16.4356V16.4325V16.4294V16.4263V16.4232V16.4201V16.417V16.4139V16.4107V16.4076V16.4045V16.4013V16.3982V16.3951V16.3919V16.3888V16.3856V16.3824V16.3793V16.3761V16.373V16.3698V16.3666V16.3634V16.3602V16.3571V16.3539V16.3507V16.3475V16.3443V16.3411V16.3379V16.3347V16.3314V16.3282V16.325V16.3218V16.3186V16.3153V16.3121V16.3089V16.3056V16.3024V16.2992V16.2959V16.2927V16.2894V16.2862V16.2829V16.2797V16.2764V16.2731V16.2699V16.2666V16.2634V16.2601V16.2568V16.2535V16.2503V16.247V16.2437V16.2404V16.2371V16.2338V16.2305V16.2273V16.224V16.2207V16.2174V16.2141V16.2108V16.2075V16.2042V16.2009V16.1975V16.1942V16.1909V16.1876V16.1843V16.181V16.1777V16.1743V16.171V16.1677V16.1644V16.1611V16.1577V16.1544V16.1511V16.1477V16.1444V16.1411V16.1378V16.1344V16.1311V16.1277V16.1244V16.1211V16.1177V16.1144V16.1111V16.1077V16.1044V16.101V16.0977V16.0943V16.091V16.0877V16.0843V16.081V16.0776V16.0743V16.0709V16.0676V16.0642V16.0609V16.0575V16.0542V16.0509V16.0475V16.0442V16.0408V16.0375V16.0341V16.0308V16.0274V16.0241V16.0207V16.0174V16.014V16.0107V16.0073V16.004V16.0006V15.9973V15.9939V15.9906V15.9873V15.9839V15.9806V15.9772V15.9739V15.9705V15.9672V15.9639V15.9605V15.9572V15.9538V15.9505V15.9472V15.9438V15.9405V15.9372V15.9338V15.9305V15.9272V15.9238V15.9205V15.9172V15.9139V15.9105V15.9072V15.9039V15.9006V15.8973V15.8939V15.8906V15.8873V15.884V15.8807V15.8774V15.8741V15.8708V15.8675V15.8641V15.8608V15.8575V15.8543V15.851V15.8477V15.8444V15.8411V15.8378V15.8345V15.8312V15.8279V15.8247V15.8214V15.8181V15.8148V15.8116V15.8083V15.805V15.8018V15.7985V15.7952V15.792V15.7887V15.7855V15.7822V15.779V15.7757V15.7725V15.7693V15.766V15.7628V15.7596V15.7563V15.7531V15.7499V15.7467V15.7435V15.7403V15.737V15.7338V15.7306V15.7274V15.7242V15.7211V15.7179V15.7147V15.7115V15.7083V15.7051V15.702V15.6988V15.6956V15.6925V15.6893V15.6862V15.683V15.6799V15.6767V15.6736V15.6704V15.6673V15.6642V15.661V15.6579V15.6548V15.6517V15.6486V15.6455V15.6424V15.6393V15.6362V15.6331V15.63V15.6269V15.6239V15.6208V15.6177V15.6147V15.6116V15.6086V15.6055V15.6025V15.5994V15.5964V15.5933V15.5903V15.5873V15.5843V15.5813V15.5783V15.5753V15.5723V15.5693V15.5663V15.5633V15.5603V15.5574V15.5544V15.5514V15.5485V15.5455V15.5426V15.5396V15.5367V15.5338V15.5308V15.5279V15.525V15.5221V15.5192V15.5163V15.5134V15.5105V15.5076V15.5047V15.5019V15.499V15.4962V15.4933V15.4905V15.4876V15.4848V15.4819V15.4791V15.4763V15.4735V15.4707V15.4679V15.4651V15.4623V15.4595V15.4567V15.454V15.4512V15.4485V15.4457V15.443V15.4402V15.4375V15.4348V15.4321V15.4294V15.4266V15.424V15.4213V15.4186V15.4159V15.4132V15.4106V15.4079V15.4053V15.4026V15.4V15.3974V15.3947V15.3921V15.3895V15.3869V15.3843V15.3817V15.3791V15.3766V15.374V15.3715V15.3689V15.3664V15.3638V15.3613V15.3588V15.3563V15.3538V15.3513V15.3488V15.3463V15.3438V15.3413V15.3389V15.3364V15.334V15.3316V15.3291V15.3267V15.3243V15.3219V15.3195V15.3171V15.3147V15.3124V15.31V15.3076V15.3053V15.303V15.3006V15.2983V15.296V15.2937V15.2914V15.2891V15.2868V15.2846V15.2823V15.28V15.2778V15.2756Z" fill="currentColor" stroke="currentColor" stroke-width="0.1"/>
<path d="M22.8572 9.51152H22.8572H22.8572H22.8572H22.8572H22.857H22.8557H22.8453H22.762H22.0953C21.9914 9.51152 21.9085 9.53766 21.8444 9.58753C21.7807 9.63707 21.7404 9.70626 21.7145 9.78381C21.6643 9.9344 21.6643 10.1315 21.6644 10.3174L21.6644 10.3234C21.6644 10.5302 21.7672 10.7327 21.9171 10.8826C22.067 11.0325 22.2695 11.1353 22.4763 11.1353H22.8572C25.883 11.1353 28.145 13.0247 28.522 15.6638L28.5231 15.6719L28.5268 15.6791C28.7156 16.0568 28.8089 16.3377 28.8555 16.6174C28.9023 16.8982 28.9025 17.1796 28.9025 17.5615C28.9025 17.7683 29.0053 17.9708 29.1552 18.1207C29.3051 18.2706 29.5076 18.3734 29.7144 18.3734C29.9211 18.3734 30.1236 18.2706 30.2735 18.1207C30.4234 17.9708 30.5263 17.7683 30.5263 17.5615V17.5593V17.5571V17.5549V17.5527V17.5505V17.5483V17.5461V17.5439V17.5418V17.5396V17.5375V17.5354V17.5332V17.5311V17.529V17.5269V17.5248V17.5227V17.5207V17.5186V17.5165V17.5145V17.5125V17.5104V17.5084V17.5064V17.5044V17.5024V17.5004V17.4984V17.4964V17.4945V17.4925V17.4906V17.4886V17.4867V17.4848V17.4828V17.4809V17.479V17.4771V17.4753V17.4734V17.4715V17.4696V17.4678V17.4659V17.4641V17.4623V17.4605V17.4586V17.4568V17.455V17.4533V17.4515V17.4497V17.4479V17.4462V17.4444V17.4427V17.4409V17.4392V17.4375V17.4358V17.4341V17.4324V17.4307V17.429V17.4273V17.4257V17.424V17.4223V17.4207V17.4191V17.4174V17.4158V17.4142V17.4126V17.411V17.4094V17.4078V17.4062V17.4047V17.4031V17.4015V17.4V17.3985V17.3969V17.3954V17.3939V17.3924V17.3909V17.3894V17.3879V17.3864V17.3849V17.3834V17.382V17.3805V17.3791V17.3776V17.3762V17.3748V17.3733V17.3719V17.3705V17.3691V17.3677V17.3663V17.365V17.3636V17.3622V17.3609V17.3595V17.3582V17.3568V17.3555V17.3542V17.3529V17.3515V17.3502V17.3489V17.3476V17.3464V17.3451V17.3438V17.3425V17.3413V17.34V17.3388V17.3375V17.3363V17.3351V17.3339V17.3327V17.3314V17.3302V17.3291V17.3279V17.3267V17.3255V17.3243V17.3232V17.322V17.3209V17.3197V17.3186V17.3175V17.3163V17.3152V17.3141V17.313V17.3119V17.3108V17.3097V17.3086V17.3076V17.3065V17.3054V17.3044V17.3033V17.3023V17.3012V17.3002V17.2992V17.2981V17.2971V17.2961V17.2951V17.2941V17.2931V17.2921V17.2911V17.2902V17.2892V17.2882V17.2873V17.2863V17.2854V17.2844V17.2835V17.2826V17.2816V17.2807V17.2798V17.2789V17.278V17.2771V17.2762V17.2753V17.2745V17.2736V17.2727V17.2718V17.271V17.2701V17.2693V17.2684V17.2676V17.2668V17.2659V17.2651V17.2643V17.2635V17.2627V17.2619V17.2611V17.2603V17.2595V17.2587V17.258V17.2572V17.2564V17.2557V17.2549V17.2542V17.2534V17.2527V17.252V17.2512V17.2505V17.2498V17.2491V17.2484V17.2477V17.247V17.2463V17.2456V17.2449V17.2442V17.2435V17.2429V17.2422V17.2416V17.2409V17.2402V17.2396V17.239V17.2383V17.2377V17.2371V17.2364V17.2358V17.2352V17.2346V17.234V17.2334V17.2328V17.2322V17.2316V17.231V17.2305V17.2299V17.2293V17.2288V17.2282V17.2276V17.2271V17.2265V17.226V17.2255V17.2249V17.2244V17.2239V17.2233V17.2228V17.2223V17.2218V17.2213V17.2208V17.2203V17.2198V17.2193V17.2188V17.2184V17.2179V17.2174V17.2169V17.2165V17.216V17.2156V17.2151V17.2147V17.2142V17.2138V17.2133V17.2129V17.2125V17.212V17.2116V17.2112V17.2108V17.2104V17.21V17.2096V17.2092V17.2088V17.2084V17.208V17.2076V17.2072V17.2069V17.2065V17.2061V17.2057V17.2054V17.205V17.2047V17.2043V17.204V17.2036V17.2033V17.2029V17.2026V17.2023V17.2019V17.2016V17.2013V17.201V17.2007V17.2003V17.2V17.1997V17.1994V17.1991V17.1988V17.1985V17.1983V17.198V17.1977V17.1974V17.1971V17.1968V17.1966V17.1963V17.196V17.1958V17.1955V17.1953V17.195V17.1948V17.1945V17.1943V17.194V17.1938V17.1936V17.1933V17.1931V17.1929V17.1926V17.1924V17.1922V17.192V17.1918V17.1916V17.1913V17.1911V17.1909V17.1907V17.1905V17.1903V17.1902V17.19V17.1898V17.1896V17.1894V17.1892V17.189V17.1889V17.1887V17.1885V17.1884V17.1882V17.188V17.1879V17.1877V17.1876V17.1874V17.1872V17.1871V17.187V17.1868V17.1867V17.1865V17.1864V17.1862V17.1861V17.186V17.1859V17.1857V17.1856V17.1855V17.1854V17.1852V17.1851V17.185V17.1849V17.1848V17.1847V17.1846V17.1845V17.1843V17.1842V17.1841V17.184V17.184V17.1839V17.1838V17.1837V17.1836V17.1835V17.1834V17.1833V17.1832V17.1832V17.1831V17.183V17.1829V17.1829V17.1828V17.1827V17.1826V17.1826V17.1825V17.1824V17.1824V17.1823V17.1823V17.1822V17.1821V17.1821V17.182V17.182V17.1819V17.1819V17.1818V17.1818V17.1817V17.1817V17.1816V17.1816V17.1815V17.1815V17.1815V17.1814V17.1814V17.1814V17.1813V17.1813V17.1812V17.1812V17.1812V17.1812V17.1811V17.1811V17.1811V17.181V17.181V17.181V17.181V17.1809V17.1809V17.1809V17.1809V17.1809V17.1808V17.1808V17.1808V17.1808V17.1808V17.1808V17.1808V17.1807V17.1807V17.1807V17.1807V17.1807V17.1807V17.1807V17.1807V17.1807V17.1806V17.1806V17.1806V17.1806V17.1806V17.1806V17.1806V17.1806V17.1806C30.5263 12.9625 27.0753 9.51152 22.8572 9.51152ZM22.8572 9.51152C22.8389 9.52982 22.834 9.54813 22.8351 9.56152H22.8572V9.51152Z" fill="currentColor" stroke="currentColor" stroke-width="0.1"/>
<path d="M25.1428 17.9923C25.3496 17.9923 25.5521 17.8895 25.702 17.7396C25.8519 17.5897 25.9547 17.3872 25.9547 17.1804C25.9547 16.4026 25.5664 15.6291 25.0368 15.0514C24.5083 14.4748 23.8293 14.0828 23.2381 14.0828C22.4628 14.0828 22.0452 14.4738 22.0452 14.8947C22.0452 14.8975 22.0452 14.9003 22.0452 14.9031C22.0452 15.0871 22.0452 15.2907 22.1489 15.4463C22.2578 15.6097 22.4696 15.7066 22.8571 15.7066C23.2306 15.7066 23.5988 15.8001 23.8727 16.0284C24.145 16.2553 24.3309 16.621 24.3309 17.1804C24.3309 17.3872 24.4338 17.5897 24.5837 17.7396C24.7335 17.8895 24.9361 17.9923 25.1428 17.9923Z" fill="currentColor" stroke="currentColor" stroke-width="0.1"/>
</svg>
