<svg width="40" height="41" viewBox="0 0 40 41" fill="none" xmlns="http://www.w3.org/2000/svg">
<path d="M0 21.3458V18.729C0 18.3552 0 17.6075 0 17.2337C0.747664 12.3739 2.99065 8.26173 6.72897 4.89724C11.5888 0.785094 17.1963 -0.710233 23.5514 0.411262C34.7664 2.65425 41.8692 13.4954 39.2523 24.7103C37.3832 32.187 31.028 38.5421 23.1776 39.6636C22.4299 39.6636 21.6822 40.0374 20.9346 40.0374H18.6916C18.3178 40.0374 18.3178 40.0374 17.9439 40.0374C13.8318 39.6636 10.4673 38.1683 7.47664 35.5514C3.73832 32.187 1.1215 28.4486 0.373832 23.5888C0 22.8412 0 22.0935 0 21.3458ZM19.8131 37.4206C29.5327 37.4206 37.3832 29.5701 37.3832 19.8505C37.3832 10.1309 29.5327 2.28042 19.8131 2.28042C10.0935 2.28042 2.24299 10.1309 2.24299 19.8505C2.24299 29.5701 10.0935 37.4206 19.8131 37.4206Z" fill="currentColor"/>
<path d="M20.9346 16.1122C20.9346 17.2337 20.9346 17.9814 20.9346 19.1029C20.9346 19.4767 20.9346 19.4767 21.3085 19.8505C23.5515 21.7197 25.4206 23.9627 27.6636 26.2057C28.0374 26.2057 28.0374 26.5795 28.0374 27.3272C28.0374 28.0748 26.9159 28.4486 26.1683 28.0748C26.1683 28.0748 25.7945 28.0748 25.7945 27.701C23.5515 25.458 21.6823 23.215 19.4393 20.972C19.0655 20.5982 18.6917 20.2243 18.6917 19.8505C18.6917 17.6075 18.6917 15.3645 18.6917 13.1215C18.6917 12.0001 19.4393 11.6262 20.187 12.0001C20.5608 12.3739 20.9346 12.7477 20.9346 13.1215C20.9346 14.243 20.9346 14.9907 20.9346 16.1122Z" fill="currentColor"/>
<path d="M20.9346 7.14045C20.9346 7.51428 20.9346 7.88812 20.9346 8.26195C20.9346 9.00961 20.5608 9.38344 19.8131 9.38344C19.4393 9.38344 18.6917 9.00961 18.6917 8.26195C18.6917 7.51428 18.6917 6.76662 18.6917 6.01896C18.6917 5.27129 19.0655 4.89746 19.8131 4.89746C20.5608 4.89746 20.9346 5.27129 20.9346 6.01896C20.9346 6.39279 20.9346 6.76662 20.9346 7.14045Z" fill="currentColor"/>
<path d="M7.10285 18.729C7.47669 18.729 7.85052 18.729 8.22435 18.729C8.97201 18.729 9.34584 19.1028 9.34584 19.8505C9.34584 20.5982 8.97201 20.972 8.22435 20.972C7.47669 20.972 6.72902 20.972 5.98136 20.972C5.2337 20.972 4.85986 20.5982 4.85986 19.8505C4.85986 19.4767 5.2337 18.729 5.98136 18.729C6.35519 18.729 6.72902 18.729 7.10285 18.729Z" fill="currentColor"/>
<path d="M32.8971 20.972C32.5233 20.972 32.1494 20.972 31.7756 20.972C31.028 20.972 30.6541 20.5982 30.6541 19.8505C30.2803 19.4767 31.028 18.729 31.7756 18.729C32.5233 18.729 33.2709 18.729 34.0186 18.729C34.7663 18.729 35.1401 19.1028 35.1401 19.8505C35.1401 20.5982 34.7663 20.972 34.0186 20.972C33.6448 20.972 33.2709 20.972 32.8971 20.972Z" fill="currentColor"/>
<path d="M20.9346 32.9349C20.9346 33.3087 20.9346 33.6826 20.9346 34.0564C20.9346 34.804 20.5608 35.1779 19.8131 35.1779C19.4393 35.1779 18.6917 34.804 18.6917 34.0564C18.6917 33.3087 18.6917 32.5611 18.6917 31.8134C18.6917 31.0657 19.0655 30.6919 19.8131 30.6919C20.5608 30.6919 20.9346 31.0657 20.9346 31.8134C20.9346 32.1872 20.9346 32.5611 20.9346 32.9349Z" fill="currentColor"/>
<path d="M31.0281 29.9442C31.0281 30.6919 30.6543 31.0657 29.9067 31.0657C29.159 31.0657 28.7852 30.6919 28.7852 29.9442C28.7852 29.1966 29.159 28.8228 29.9067 28.8228C30.6543 28.8228 31.0281 29.1966 31.0281 29.9442Z" fill="currentColor"/>
<path d="M8.97192 10.1313C8.97192 9.3836 9.34576 9.00977 10.0934 9.00977C10.8411 9.00977 11.2149 9.3836 11.2149 10.1313C11.2149 10.8789 10.8411 11.2528 10.0934 11.2528C9.34576 11.2528 8.97192 10.8789 8.97192 10.1313Z" fill="currentColor"/>
<path d="M29.9067 9.00977C30.6543 9.00977 31.0281 9.3836 31.0281 10.1313C31.0281 10.8789 30.6543 11.2528 29.9067 11.2528C29.159 11.2528 28.7852 10.8789 28.7852 10.1313C28.7852 9.3836 29.159 9.00977 29.9067 9.00977Z" fill="currentColor"/>
<path d="M10.0934 31.0657C9.34576 31.0657 8.97192 30.6919 8.97192 29.9442C8.97192 29.1966 9.34576 28.8228 10.0934 28.8228C10.8411 28.8228 11.2149 29.1966 11.2149 29.9442C11.2149 30.6919 10.4673 31.0657 10.0934 31.0657Z" fill="currentColor"/>
</svg>
