<svg width="156" height="77" viewBox="0 0 156 77" fill="none" xmlns="http://www.w3.org/2000/svg">
<g id="Group">
<path id="Vector" d="M80.8169 50.3944C81.1382 50.3944 81.4595 50.3139 81.7809 50.1796C82.1022 50.0453 82.37 49.8573 82.5575 49.6156L95.6521 33.5296V48.1386C95.6521 48.7563 95.8931 49.3202 96.3215 49.7499C96.75 50.1796 97.3123 50.3944 97.955 50.3944C98.5977 50.3944 99.1868 50.1796 99.6153 49.7231C100.044 49.2934 100.258 48.7294 100.258 48.1118V28.1854C100.258 27.5409 100.044 26.977 99.5885 26.5473C99.16 26.1176 98.5977 25.9028 97.955 25.9028C97.2588 25.9028 96.6429 26.1713 96.1877 26.7353L83.0395 42.8214V28.1854C83.0395 27.5409 82.8252 27.0038 82.4236 26.5741C82.0219 26.1445 81.4596 25.9296 80.7901 25.9296C80.1742 25.9296 79.6118 26.1445 79.1566 26.5473C78.6746 26.977 78.4336 27.5409 78.4336 28.2123V48.1386C78.4336 48.7831 78.6746 49.3471 79.1566 49.7768C79.6386 50.1796 80.1742 50.3944 80.8169 50.3944Z" fill="#018D38"/>
<path id="Vector_2" d="M104.409 30.2264H110.166V48.1386C110.166 48.7563 110.407 49.3202 110.835 49.7499C111.264 50.1796 111.826 50.3944 112.469 50.3944C113.112 50.3944 113.647 50.1796 114.102 49.7499C114.531 49.3202 114.772 48.7563 114.772 48.1386V30.2264H120.502C121.118 30.2264 121.654 30.0116 122.055 29.6087C122.457 29.2059 122.671 28.6688 122.671 28.078C122.671 27.4872 122.457 26.9501 122.055 26.5473C121.654 26.1445 121.118 25.9296 120.502 25.9296H104.409C103.793 25.9296 103.257 26.1445 102.855 26.5473C102.454 26.9501 102.24 27.4872 102.24 28.078C102.24 28.6688 102.454 29.2059 102.855 29.6087C103.284 30.0384 103.819 30.2264 104.409 30.2264Z" fill="#018D38"/>
<path id="Vector_3" d="M126.983 50.3944C127.626 50.3944 128.215 50.1796 128.643 49.723C129.072 49.2934 129.286 48.7294 129.286 48.1118V40.109H131.455L139.863 49.6962C140.265 50.1527 140.854 50.4213 141.551 50.4213C141.577 50.4213 141.604 50.4213 141.604 50.4213C142.247 50.4213 142.809 50.2064 143.211 49.8036C143.827 49.186 143.934 48.5951 143.907 48.1923C143.853 47.6821 143.639 47.2255 143.264 46.7959L135.311 37.7458L142.488 29.5819C142.889 29.1253 143.104 28.642 143.104 28.1317C143.13 27.5946 142.916 27.0844 142.515 26.6278C142.086 26.1445 141.524 25.9028 140.854 25.9296C140.185 25.9565 139.622 26.225 139.221 26.7084L131.348 35.9196H129.34V28.2123C129.34 27.5678 129.125 27.0038 128.67 26.5741C128.242 26.1445 127.679 25.9296 127.037 25.9296C126.394 25.9296 125.858 26.1445 125.43 26.5473C124.975 26.977 124.76 27.5409 124.76 28.1854V48.1118C124.76 48.7294 125.002 49.2934 125.43 49.723C125.778 50.1796 126.34 50.3944 126.983 50.3944Z" fill="#018D38"/>
<path id="Vector_4" d="M136.087 0.12207H74.524C65.4194 0.12207 57.7876 6.40612 55.6721 14.8923H3.07936C2.035 14.8923 1.20487 15.7248 1.20487 16.7721C1.20487 17.8194 2.035 18.6519 3.07936 18.6519H55.1365C55.1097 18.9742 55.1097 19.2965 55.1097 19.6187V25.6074H20.1907C19.1464 25.6074 18.3162 26.4399 18.3162 27.4872C18.3162 28.5345 19.1464 29.367 20.1907 29.367H55.0829V36.2956H33.5531C32.5088 36.2956 31.6787 37.1281 31.6787 38.1755C31.6787 39.2228 32.5088 40.0553 33.5531 40.0553H55.0829V46.9839H58.8319V40.0553H69.6504C70.6947 40.0553 71.5249 39.2228 71.5249 38.1755C71.5249 37.1281 70.6947 36.2956 69.6504 36.2956H58.8319V29.367H69.6504C70.6947 29.367 71.5249 28.5345 71.5249 27.4872C71.5249 26.4399 70.6947 25.6074 69.6504 25.6074H58.8319V19.6456C58.8319 19.3233 58.8319 19.0011 58.8587 18.6788H69.6504C70.6947 18.6788 71.5249 17.8463 71.5249 16.799C71.5249 15.7516 70.6947 14.9191 69.6504 14.9191H59.5549C61.5633 8.55451 67.5081 3.90861 74.524 3.90861H136.087C144.737 3.90861 151.78 10.9714 151.78 19.6456V56.7322C151.78 65.4063 144.737 72.4692 136.087 72.4692H74.524C67.5081 72.4692 61.5633 67.8233 59.5549 61.4586H69.6504C70.6947 61.4586 71.5249 60.6261 71.5249 59.5788C71.5249 58.5315 70.6947 57.699 69.6504 57.699H58.8587C58.8319 57.3767 58.8319 57.0544 58.8319 56.7322V50.7704H55.0829V56.7322C55.0829 57.0544 55.0829 57.3767 55.1097 57.699H1.82078C0.776419 57.699 -0.0537109 58.5315 -0.0537109 59.5788C-0.0537109 60.6261 0.776419 61.4586 1.82078 61.4586H55.6721C57.7876 69.9179 65.4462 76.2288 74.524 76.2288H136.087C146.799 76.2288 155.529 67.4741 155.529 56.7322V19.6187C155.529 8.87677 146.799 0.12207 136.087 0.12207Z" fill="#018D38"/>
<path id="Vector_5" d="M69.6504 50.7435C70.6948 50.7435 71.5249 49.911 71.5249 48.8637C71.5249 47.8164 70.6948 46.9839 69.6504 46.9839H58.832H55.083H11.0862C10.0418 46.9839 9.21167 47.8164 9.21167 48.8637C9.21167 49.911 10.0418 50.7435 11.0862 50.7435H55.083H58.832H69.6504Z" fill="#D2E0CA"/>
</g>
</svg>
