<svg viewBox="0 0 1840 767" fill="none" xmlns="http://www.w3.org/2000/svg" preserveAspectRatio="none">
<path d="M23.1587 0C10.2927 0 0 10.2609 0 23.087V531C0 543.826 10.2927 554.087 23.1587 554.087L505.631 556.011C518.497 556.011 528.79 566.272 528.79 579.098V610.522C528.79 623.348 539.083 633.609 551.949 633.609H636.221C649.086 633.609 659.379 643.87 659.379 656.696V697.739C659.379 710.565 669.672 720.826 682.538 720.826H791.255C804.121 720.826 814.414 731.087 814.414 743.913C814.414 756.739 824.706 767 837.572 767H1816.84C1829.71 767 1840 756.739 1840 743.913V23.087C1840 10.2609 1829.71 0 1816.84 0H23.1587Z" fill="white"/>
</svg>
