<svg viewBox="0 0 1228 520" fill="none" xmlns="http://www.w3.org/2000/svg" preserveAspectRatio="none">
<path d="M132,5c356.3,0,712.7,0,1069,0c1.4,0.6,2.7,1.2,4.1,1.8c12.9,4.9,19.1,12.9,19.1,25.1c0,154,0,308,0.1,461.9
		c0,10.1-4.7,17-12.9,22.1c-6.8,4.2-14.4,4.8-22.1,4.8c-113.5,0-227,0-340.4,0c-267.1,0-534.3,0-801.4,0c-2,0-4,0.1-6,0
		c-4-0.2-8-0.2-11.9-0.8C18.4,518.2,5.2,509,5.3,493c0.2-123,0.1-246,0.2-368.9c0-4.2,1-8.8,2.9-12.4C14.1,101.5,23.6,97.2,35,97
		c14.8-0.4,29.6-0.6,44.5-0.8c14.5-0.3,30.8-11.7,29.6-29.8c-0.8-11.6,0-23.3-0.2-35c-0.1-8.4,3.3-15,10-19.6
		C122.8,9,127.6,7.2,132,5z" fill="#E3E3E3"/>
</svg>

